# xmcd
#
# Track frame offsets:
#	182
#	11637
#	24075
#	38615
#	55150
#	65650
#	79675
#	93387
#	109085
#	124010
#
# Disc length: 1820 seconds
#
# Revision: 6
# Processed by: cddbd v1.5.1PL0 Copyright (c) Steve Scherf et al.
# Submitted via: audiograbber 1.83.01
#
DISCID=72071a0a
DTITLE=Various Artist - Best of the Blues Vol.1
DYEAR=1997
DGENRE=Blues
TTITLE0=John Lee Hooker - Boom Boom
TTITLE1=Howlin' Wolf - Killing Floor
TTITLE2=Brownie Mcghee and Sonny Terry - Trouble in Mind
TTITLE3=John Hurt - Coffee Blues
TTITLE4=Jimmy Reed - Baby What You Want Me To Do
TTITLE5=Muddy Waters - You Gonna Need My Help
TTITLE6=Leadbelly - Where Did You Sleep Last Night
TTITLE7=Memphis Slim - Mother Earth
TTITLE8=Lightnin' Hopkins - MoJo Hand
TTITLE9=Leadbelly - Pretty Flower In Your Back Yard
EXTD=
EXTT0=
EXTT1=
EXTT2=
EXTT3=
EXTT4=
EXTT5=
EXTT6=
EXTT7=
EXTT8=
EXTT9=
PLAYORDER=
